<svg xmlns="http://www.w3.org/2000/svg" viewBox="0 0 128 128" width="128" height="128">
  <defs>
    <linearGradient id="bgGrad" x1="0%" y1="0%" x2="100%" y2="100%">
      <stop offset="0%" stop-color="#18181b"/>
      <stop offset="100%" stop-color="#09090b"/>
    </linearGradient>
    <linearGradient id="accentGrad" x1="0%" y1="0%" x2="100%" y2="100%">
      <stop offset="0%" stop-color="#6366f1"/>
      <stop offset="50%" stop-color="#8b5cf6"/>
      <stop offset="100%" stop-color="#ec4899"/>
    </linearGradient>
    <filter id="glow" x="-20%" y="-20%" width="140%" height="140%">
      <feDropShadow dx="0" dy="2" stdDeviation="4" flood-color="#6366f1" flood-opacity="0.3"/>
    </filter>
  </defs>
  <rect width="128" height="128" rx="28" fill="url(#bgGrad)"/>
  <rect width="126" height="126" x="1" y="1" rx="27" fill="none" stroke="rgba(255,255,255,0.12)" stroke-width="2"/>
  <g transform="translate(16, 16) scale(4)">
    <path d="M18.178 8c5.096 0 5.096 8 0 8-2.67 0-4.634-2.667-6.178-5.333C10.456 8 8.492 8 5.822 8 0.726 8 0.726 16 5.822 16c2.67 0 4.634-2.667 6.178-5.333C13.544 8 15.508 8 18.178 8z"
          stroke="url(#accentGrad)" stroke-width="2.5" stroke-linecap="round" stroke-linejoin="round" fill="none" filter="url(#glow)"/>
  </g>
</svg>
